<?xml version="1.0" standalone="no"?><!DOCTYPE svg PUBLIC "-//W3C//DTD SVG 1.1//EN" "http://www.w3.org/Graphics/SVG/1.1/DTD/svg11.dtd"><svg t="1621864885777" class="icon" viewBox="0 0 1024 1024" version="1.1" xmlns="http://www.w3.org/2000/svg" p-id="1238" xmlns:xlink="http://www.w3.org/1999/xlink" width="200" height="200"><defs><style type="text/css"></style></defs><path d="M660.841412 340.473976c33.490824 0 60.741271 28.503341 60.74127 63.536189V955.693176c0 35.032847-27.250447 63.524141-60.74127 63.524142h-302.742588c-33.490824 0-60.729224-28.491294-60.729224-63.524142V404.010165c0-35.032847 27.250447-63.536188 60.741271-63.536189z m0 25.925271h-302.742588c-19.841506 0-35.948424 16.829741-35.948424 37.610918V955.693176c0 20.781176 16.094871 37.610918 35.960471 37.610918h302.742588c19.853553 0 35.948424-16.829741 35.948423-37.610918V404.010165c0-20.781176-16.094871-37.610918-35.96047-37.610918zM509.470118 740.9664c29.792376 0 53.946729 25.262682 53.946729 56.416376s-24.154353 56.416376-53.946729 56.416377-53.934682-25.250635-53.934683-56.416377c0-31.153694 24.154353-56.416376 53.934683-56.416376z m0 25.925271c-16.070776 0-29.153882 13.685459-29.153883 30.491105 0 16.817694 13.083106 30.503153 29.153883 30.503153 16.082824 0 29.153882-13.685459 29.153882-30.503153 0-16.805647-13.071059-30.479059-29.153882-30.479058zM927.623529 0.939671c32.635482 0 59.343812 27.057694 60.681036 60.837647l0.060235 2.686494v551.695059c0 34.129318-25.865035 62.0544-58.187294 63.463905l-2.553977 0.060236H755.519247v-25.913224H927.623529c19.154824 0 34.803953-15.661176 35.900236-35.406306l0.060235-2.204611V64.463812c0-20.022212-14.974494-36.406212-33.852235-37.550683L927.623529 26.864941H624.880941c-19.142776 0-34.791906 15.661176-35.900235 35.406306l-0.048188 2.204612v242.0736h-24.7808V64.463812c0-34.129318 25.865035-62.066447 58.175247-63.475953l2.553976-0.048188H927.623529z m-533.564235 0c32.647529 0 59.343812 27.045647 60.693082 60.837647l0.048189 2.686494v242.0736h-24.7808V64.451765c0-20.034259-14.962447-36.406212-33.852236-37.550683l-2.108235-0.060235H91.316706c-19.142776 0-34.791906 15.661176-35.888188 35.394259l-0.060236 2.216659v551.683011c0 20.046306 14.962447 36.406212 33.852236 37.550683l2.108235 0.060235h172.104282v25.925271H91.328753c-32.635482 0-59.343812-27.057694-60.693082-60.849694l-0.048189-2.686495V64.463812C30.587482 30.322447 56.452518 2.397365 88.762729 0.963765l2.566024-0.048189h302.742588z m265.288282 561.392941v78.366117H359.604706v-78.378164h299.754918z m-24.7808 25.901176H384.373459v26.539671h250.193317V588.257882z m24.744659-143.468423v78.366117H359.556518V444.777412h299.754917z m-416.623435-43.333271c6.119906 0 12.179576 1.084235 17.913976 3.192471l2.831059 1.14447v30.695906a28.431059 28.431059 0 0 0-20.745035-9.119623c-16.070776 0-29.153882 13.685459-29.153882 30.503153 0 16.805647 13.083106 30.479059 29.153882 30.479058 7.312565 0 13.974588-2.819012 19.094588-7.469176l1.650447-1.626353v30.695906c-6.541553 2.855153-13.613176 4.336941-20.745035 4.336941-29.780329 0-53.934682-25.262682-53.934682-56.416376s24.154353-56.416376 53.934682-56.416377z m533.564235 0c29.792376 0 53.934682 25.262682 53.934683 56.416377s-24.142306 56.404329-53.934683 56.392282c-6.107859 0-12.167529-1.084235-17.901929-3.192471l-2.831059-1.132423v-30.695906a28.431059 28.431059 0 0 0 20.732988 9.107576c16.082824 0 29.153882-13.673412 29.153883-30.479058 0-16.829741-13.071059-30.503153-29.153883-30.503153-7.288471 0-13.974588 2.831059-19.082541 7.49327l-1.650447 1.614306v-30.683859a51.754165 51.754165 0 0 1 20.732988-4.336941zM634.530635 470.678588H384.337318v26.539671H634.518588V470.678588z m291.599059-247.892329v78.366117H626.374776v-78.366117h299.754918z m-533.564235 0v78.366117H92.810541v-78.366117h299.754918z m508.783435 25.92527H651.155576v26.527624h250.193318v-26.527624z m-533.564235 0H117.591341v26.527624H367.796706v-26.527624z m558.308894-143.48047v78.366117H626.326588V105.231059h299.754918z m-533.564235 0v78.366117H92.7744V105.231059h299.754918z m508.783435 25.913223H651.119435v26.527624h250.193318v-26.527624z m-533.564235 0H117.5552v26.539671h250.193318v-26.527624z" fill="#8a8a8a" p-id="1239"></path></svg>